<svg xmlns="http://www.w3.org/2000/svg" viewBox="0 0 24 24"><path d="M24 7.387v10.478c0 .23-.08.424-.238.576a.806.806 0 0 1-.588.234h-8.55v-7.9l1.91 1.42 1.248.04L24 7.387z" fill="#0364B8"/><path d="M15.888 6.235v.54L9.348 10.7l-.006-.003-.3-.173-.174-.1-.122-.07V6.778l.002-.003.174.127.3.218z" fill="#0A2767"/><path d="M24 7.387l-6.176 4.828-1.248-.04-1.91-1.42-.778-.518-.174-.1-.122-.07.072-.05 6.54-4.465.052-.035A.809.809 0 0 1 24 7.387z" fill="#28A8EA"/><path d="M8.846 10.354V18.1l6.68 3.72c.22.13.48.18.72.16v-7.2l-1.91-1.42-.778-.518-.174-.1-.122-.07-.006-.004-4.41-2.314z" fill="#0078D4"/><path d="M15.636 6.775v4.47l-6.79 6.855V6.775c0-.233.08-.427.238-.58a.806.806 0 0 1 .588-.234h5.376c-.23 0-.423.08-.576.234a.786.786 0 0 0-.237.58h1.4z" fill="#0364B8"/><path d="M14.236 6.775v5.87L8.846 18.1V6.775c0-.233.08-.427.238-.58a.806.806 0 0 1 .588-.234h4.977c-.23 0-.424.08-.577.234a.786.786 0 0 0-.237.58h.4z" fill="#0078D4" opacity=".5"/><path d="M0 7.225v9.55a.8.8 0 0 0 .788.8h7.658v-3.92l.4-.21V6h-8.06a.787.787 0 0 0-.786.787v.438z" fill="#0078D4"/><ellipse cx="4.44" cy="12" rx="2.64" ry="2.88" fill="#fff"/></svg>
